<?xml version="1.0" standalone="no"?>
<!DOCTYPE svg PUBLIC "-//W3C//DTD SVG 20010904//EN"
 "http://www.w3.org/TR/2001/REC-SVG-20010904/DTD/svg10.dtd">
<svg version="1.0" xmlns="http://www.w3.org/2000/svg"
 width="512.000000pt" height="512.000000pt" viewBox="0 0 512.000000 512.000000"
 preserveAspectRatio="xMidYMid meet">
<metadata>
Created by potrace 1.14, written by Peter Selinger 2001-2017
</metadata>
<g transform="translate(0.000000,512.000000) scale(0.100000,-0.100000)"
fill="#000000" stroke="none">
<path d="M151 5089 c-46 -14 -124 -94 -139 -145 -15 -53 -18 -3549 -2 -3603
14 -49 57 -107 96 -130 51 -31 110 -36 350 -36 192 1 225 3 248 18 14 10 26
26 26 37 0 19 7 20 110 20 l109 0 16 -29 c8 -16 25 -33 37 -37 13 -4 235 -8
495 -8 259 -1 473 -3 475 -6 2 -3 16 -30 32 -60 105 -198 310 -397 526 -511
87 -46 219 -95 305 -113 39 -8 84 -18 100 -21 63 -13 283 -13 370 1 168 25
356 94 507 185 l38 23 71 -71 72 -71 -17 -37 c-22 -46 -23 -103 -2 -147 20
-41 147 -168 191 -190 38 -20 116 -16 151 7 l26 17 76 -76 c41 -42 86 -79 99
-82 57 -15 105 43 84 100 -10 28 -8 32 50 88 59 58 60 59 94 47 28 -11 37 -10
59 4 28 19 41 54 31 86 -3 11 -40 54 -81 95 l-75 75 15 30 c23 43 20 109 -5
150 -29 47 -157 171 -193 186 -36 15 -111 11 -140 -8 -19 -13 -25 -9 -93 58
-40 40 -73 75 -73 78 0 4 15 30 33 59 18 29 38 65 45 79 l13 25 307 -1 c318
-1 372 4 427 36 38 23 81 82 95 130 7 22 10 677 10 1806 0 1591 -2 1775 -16
1810 -21 49 -69 100 -119 123 -39 19 -109 19 -2420 19 -1502 -1 -2392 -4
-2414 -10z"/>
</g>
</svg>
